<svg viewBox="0 0 16 16" fill="#000000" xmlns="http://www.w3.org/2000/svg" id="Xrp-Line--Streamline-Remix" height="16" width="16">
  <desc>
    Xrp Line Streamline Icon: https://streamlinehq.com
  </desc>
  <path d="M14.518799999999999 2.6666666666666665h-1.8914l-2.9928 2.9139799999999996c-0.4357333333333333 0.42266666666666663 -1.0229333333333333 0.6596066666666667 -1.6347333333333334 0.6596066666666667 -0.6117333333333332 0 -1.1989333333333332 -0.23693999999999998 -1.6346466666666668 -0.6596066666666667L3.3747266666666667 2.6666666666666665H1.4817733333333332l3.93774 3.835993333333333c1.4264866666666667 1.3884066666666666 3.7376199999999997 1.3884066666666666 5.163086666666667 0L14.518799999999999 2.6666666666666665ZM1.4817733333333332 13.333333333333332h1.8855266666666666l3.0056466666666664 -2.9232666666666667c0.4340533333333333 -0.4206 1.0190533333333334 -0.6564 1.6284533333333333 -0.6564 0.6094666666666666 0 1.1944666666666666 0.2358 1.6285333333333334 0.6564L12.634533333333332 13.333333333333332h1.8842666666666665l-3.946733333333333 -3.8407999999999998c-1.4211333333333331 -1.3816666666666664 -3.723466666666667 -1.3816666666666664 -5.14354 0L1.4817733333333332 13.333333333333332Z" stroke-width="0.6667"></path>
</svg>